<svg width="219" height="33" viewBox="0 0 219 33" fill="none" xmlns="http://www.w3.org/2000/svg">
<path d="M9.8 29.48C8.04 29.48 6.49333 29.2 5.16 28.64C3.82667 28.0533 2.76 27.2533 1.96 26.24C1.16 25.2267 0.68 24.0533 0.52 22.72H5.68C5.84 23.4933 6.26667 24.16 6.96 24.72C7.68 25.2533 8.6 25.52 9.72 25.52C10.84 25.52 11.6533 25.2933 12.16 24.84C12.6933 24.3867 12.96 23.8667 12.96 23.28C12.96 22.4267 12.5867 21.8533 11.84 21.56C11.0933 21.24 10.0533 20.9333 8.72 20.64C7.86667 20.4533 7 20.2267 6.12 19.96C5.24 19.6933 4.42667 19.36 3.68 18.96C2.96 18.5333 2.37333 18 1.92 17.36C1.46667 16.6933 1.24 15.88 1.24 14.92C1.24 13.16 1.93333 11.68 3.32 10.48C4.73333 9.28 6.70667 8.68 9.24 8.68C11.5867 8.68 13.4533 9.22667 14.84 10.32C16.2533 11.4133 17.0933 12.92 17.36 14.84H12.52C12.2267 13.3733 11.12 12.64 9.2 12.64C8.24 12.64 7.49333 12.8267 6.96 13.2C6.45333 13.5733 6.2 14.04 6.2 14.6C6.2 15.1867 6.58667 15.6533 7.36 16C8.13333 16.3467 9.16 16.6667 10.44 16.96C11.8267 17.28 13.0933 17.64 14.24 18.04C15.4133 18.4133 16.3467 18.9867 17.04 19.76C17.7333 20.5067 18.08 21.5867 18.08 23C18.1067 24.2267 17.7867 25.3333 17.12 26.32C16.4533 27.3067 15.4933 28.08 14.24 28.64C12.9867 29.2 11.5067 29.48 9.8 29.48ZM31.6306 29C29.5506 29 27.884 28.4933 26.6306 27.48C25.3773 26.4667 24.7506 24.6667 24.7506 22.08V13.44H21.3506V9.16H24.7506L25.3506 3.84H29.8706V9.16H35.2306V13.44H29.8706V22.12C29.8706 23.08 30.0706 23.7467 30.4706 24.12C30.8973 24.4667 31.6173 24.64 32.6306 24.64H35.1106V29H31.6306ZM47.8666 29.48C45.3866 29.48 43.4666 28.7067 42.1066 27.16C40.7732 25.6133 40.1066 23.3467 40.1066 20.36V9.16H45.1866V19.88C45.1866 21.5867 45.5332 22.8933 46.2266 23.8C46.9199 24.7067 48.0132 25.16 49.5066 25.16C50.9199 25.16 52.0799 24.6533 52.9866 23.64C53.9199 22.6267 54.3866 21.2133 54.3866 19.4V9.16H59.5066V29H54.9866L54.5866 25.64C53.9732 26.8133 53.0799 27.7467 51.9066 28.44C50.7599 29.1333 49.4132 29.48 47.8666 29.48ZM74.6825 29.48C72.8158 29.48 71.1492 29.0267 69.6825 28.12C68.2158 27.2133 67.0558 25.9733 66.2025 24.4C65.3492 22.8267 64.9225 21.04 64.9225 19.04C64.9225 17.04 65.3492 15.2667 66.2025 13.72C67.0558 12.1467 68.2158 10.92 69.6825 10.04C71.1492 9.13333 72.8158 8.68 74.6825 8.68C76.1758 8.68 77.4825 8.96 78.6025 9.52C79.7225 10.08 80.6292 10.8667 81.3225 11.88V0.199999H86.4425V29H81.8825L81.3225 26.16C80.6825 27.04 79.8292 27.8133 78.7625 28.48C77.7225 29.1467 76.3625 29.48 74.6825 29.48ZM75.7625 25C77.4158 25 78.7625 24.4533 79.8025 23.36C80.8692 22.24 81.4025 20.8133 81.4025 19.08C81.4025 17.3467 80.8692 15.9333 79.8025 14.84C78.7625 13.72 77.4158 13.16 75.7625 13.16C74.1358 13.16 72.7892 13.7067 71.7225 14.8C70.6558 15.8933 70.1225 17.3067 70.1225 19.04C70.1225 20.7733 70.6558 22.2 71.7225 23.32C72.7892 24.44 74.1358 25 75.7625 25ZM95.2162 6.08C94.2829 6.08 93.5096 5.8 92.8962 5.24C92.3096 4.68 92.0162 3.97333 92.0162 3.12C92.0162 2.26667 92.3096 1.57333 92.8962 1.04C93.5096 0.479998 94.2829 0.199999 95.2162 0.199999C96.1496 0.199999 96.9096 0.479998 97.4962 1.04C98.1096 1.57333 98.4162 2.26667 98.4162 3.12C98.4162 3.97333 98.1096 4.68 97.4962 5.24C96.9096 5.8 96.1496 6.08 95.2162 6.08ZM92.6562 29V9.16H97.7762V29H92.6562ZM113.44 29.48C111.52 29.48 109.787 29.04 108.24 28.16C106.72 27.28 105.507 26.0667 104.6 24.52C103.72 22.9467 103.28 21.1333 103.28 19.08C103.28 17.0267 103.734 15.2267 104.64 13.68C105.547 12.1067 106.76 10.88 108.28 10C109.827 9.12 111.56 8.68 113.48 8.68C115.374 8.68 117.08 9.12 118.6 10C120.147 10.88 121.36 12.1067 122.24 13.68C123.147 15.2267 123.6 17.0267 123.6 19.08C123.6 21.1333 123.147 22.9467 122.24 24.52C121.36 26.0667 120.147 27.28 118.6 28.16C117.054 29.04 115.334 29.48 113.44 29.48ZM113.44 25.04C114.774 25.04 115.934 24.5467 116.92 23.56C117.907 22.5467 118.4 21.0533 118.4 19.08C118.4 17.1067 117.907 15.6267 116.92 14.64C115.934 13.6267 114.787 13.12 113.48 13.12C112.12 13.12 110.947 13.6267 109.96 14.64C109 15.6267 108.52 17.1067 108.52 19.08C108.52 21.0533 109 22.5467 109.96 23.56C110.947 24.5467 112.107 25.04 113.44 25.04ZM139.435 29V0.999998H148.035C152.968 0.999998 156.595 2.25333 158.915 4.76C161.262 7.26667 162.435 10.7067 162.435 15.08C162.435 19.3733 161.262 22.7733 158.915 25.28C156.595 27.76 152.968 29 148.035 29H139.435ZM142.795 26.2H147.955C150.675 26.2 152.835 25.76 154.435 24.88C156.062 23.9733 157.222 22.6933 157.915 21.04C158.608 19.36 158.955 17.3733 158.955 15.08C158.955 12.7333 158.608 10.72 157.915 9.04C157.222 7.36 156.062 6.06667 154.435 5.16C152.835 4.25333 150.675 3.8 147.955 3.8H142.795V26.2ZM164.334 29L174.654 0.999998H178.214L188.494 29H184.934L182.374 21.8H170.454L167.854 29H164.334ZM171.454 19.08H181.374L176.414 5.24L171.454 19.08ZM204.575 29.48C201.829 29.48 199.415 28.88 197.335 27.68C195.282 26.4533 193.669 24.7467 192.495 22.56C191.349 20.3733 190.775 17.8533 190.775 15C190.775 12.1467 191.349 9.64 192.495 7.48C193.669 5.29333 195.282 3.58667 197.335 2.36C199.415 1.13333 201.829 0.52 204.575 0.52C207.349 0.52 209.762 1.13333 211.815 2.36C213.895 3.58667 215.509 5.29333 216.655 7.48C217.802 9.64 218.375 12.1467 218.375 15C218.375 17.8533 217.802 20.3733 216.655 22.56C215.509 24.7467 213.895 26.4533 211.815 27.68C209.762 28.88 207.349 29.48 204.575 29.48ZM204.575 26.52C206.629 26.52 208.429 26.0667 209.975 25.16C211.549 24.2267 212.762 22.9067 213.615 21.2C214.495 19.4667 214.935 17.4 214.935 15C214.935 12.6 214.495 10.5467 213.615 8.84C212.762 7.13333 211.549 5.82667 209.975 4.92C208.429 3.98667 206.629 3.52 204.575 3.52C202.522 3.52 200.709 3.98667 199.135 4.92C197.589 5.82667 196.375 7.13333 195.495 8.84C194.642 10.5467 194.215 12.6 194.215 15C194.215 17.4 194.642 19.4667 195.495 21.2C196.375 22.9067 197.589 24.2267 199.135 25.16C200.709 26.0667 202.522 26.52 204.575 26.52Z" fill="#FAFAFA"/>
<path d="M129.338 33V0.199999H132.698V33H129.338Z" fill="#A0AEC0"/>
</svg>
